<svg width="13" height="12" viewBox="0 0 13 12" fill="none" xmlns="http://www.w3.org/2000/svg">
<path d="M12.6495 5.44248C12.7952 5.33746 12.9034 5.19094 12.9587 5.02348C13.014 4.85602 13.0138 4.67601 12.958 4.50869C12.9022 4.34138 12.7937 4.19514 12.6476 4.0905C12.5016 3.98585 12.3253 3.92804 12.1436 3.92517L8.61388 3.7962C8.59653 3.79504 8.57989 3.78905 8.56598 3.77895C8.55206 3.76886 8.54146 3.75509 8.53545 3.7393L7.31575 0.55293C7.25447 0.39082 7.14316 0.250839 6.9969 0.151939C6.85064 0.0530403 6.6765 0 6.49804 0C6.31958 0 6.14543 0.0530403 5.99918 0.151939C5.85292 0.250839 5.74161 0.39082 5.68033 0.55293L4.46455 3.75068C4.45854 3.76647 4.44794 3.78024 4.43402 3.79033C4.42011 3.80043 4.40347 3.80642 4.38611 3.80758L0.856436 3.93655C0.674699 3.93942 0.498448 3.99723 0.352396 4.10188C0.206343 4.20652 0.0978141 4.35276 0.0420256 4.52007C-0.013763 4.68739 -0.0140133 4.8674 0.0413097 5.03486C0.0966328 5.20232 0.204755 5.34884 0.350516 5.45386L3.11935 7.55914C3.13321 7.56969 3.14357 7.58393 3.14914 7.60011C3.15472 7.6163 3.15527 7.6337 3.15073 7.65018L2.19771 10.9162C2.14833 11.0825 2.15311 11.2595 2.21142 11.4231C2.26972 11.5867 2.37871 11.7289 2.52356 11.8305C2.66841 11.932 2.84209 11.988 3.02097 11.9907C3.19985 11.9934 3.37525 11.9427 3.5233 11.8456L6.44902 9.94892C6.46343 9.93929 6.48053 9.93414 6.49804 9.93414C6.51555 9.93414 6.53265 9.93929 6.54706 9.94892L9.47277 11.8456C9.61882 11.946 9.79359 12 9.97281 12C10.152 12 10.3268 11.946 10.4728 11.8456C10.6177 11.745 10.7268 11.6034 10.7851 11.4404C10.8434 11.2773 10.848 11.1009 10.7984 10.9352L9.83751 7.65777C9.83242 7.64131 9.8327 7.62374 9.83831 7.60745C9.84393 7.59116 9.8546 7.57694 9.86888 7.56673L12.6495 5.44248Z" fill="#F59E0B"/>
</svg>
